<mxfile host="65bd71144e" scale="1" border="20">
    <diagram id="Zkn0evmNHorBQS6kFR0k" name="第 1 页">
        <mxGraphModel dx="818" dy="494" grid="1" gridSize="10" guides="1" tooltips="1" connect="1" arrows="1" fold="1" page="1" pageScale="1" pageWidth="827" pageHeight="1169" background="#ffffff" math="0" shadow="0">
            <root>
                <mxCell id="0"/>
                <mxCell id="1" parent="0"/>
                <mxCell id="2" value="&lt;span style=&quot;&quot;&gt;&lt;font color=&quot;#000000&quot;&gt;栈&lt;/font&gt;&lt;/span&gt;" style="swimlane;whiteSpace=wrap;html=1;strokeColor=#000000;fillColor=none;labelBackgroundColor=none;" parent="1" vertex="1">
                    <mxGeometry x="70" y="80" width="200" height="200" as="geometry"/>
                </mxCell>
                <mxCell id="3" value="ptr" style="rounded=1;whiteSpace=wrap;html=1;labelBackgroundColor=none;strokeColor=#b46504;fillColor=#fad7ac;fontColor=#000000;" parent="2" vertex="1">
                    <mxGeometry x="90" y="40" width="50" height="30" as="geometry"/>
                </mxCell>
                <mxCell id="4" value="&lt;font color=&quot;#000000&quot;&gt;8&lt;/font&gt;" style="rounded=1;whiteSpace=wrap;html=1;labelBackgroundColor=none;strokeColor=#b46504;fillColor=#fad7ac;" parent="2" vertex="1">
                    <mxGeometry x="90" y="70" width="50" height="30" as="geometry"/>
                </mxCell>
                <mxCell id="5" value="&lt;font color=&quot;#000000&quot;&gt;5&lt;/font&gt;" style="rounded=1;whiteSpace=wrap;html=1;labelBackgroundColor=none;strokeColor=#b46504;fillColor=#fad7ac;" parent="2" vertex="1">
                    <mxGeometry x="90" y="100" width="50" height="30" as="geometry"/>
                </mxCell>
                <mxCell id="6" value="&lt;font color=&quot;#000000&quot;&gt;2&lt;/font&gt;" style="rounded=1;whiteSpace=wrap;html=1;labelBackgroundColor=none;strokeColor=#b46504;fillColor=#fad7ac;" parent="2" vertex="1">
                    <mxGeometry x="90" y="130" width="50" height="30" as="geometry"/>
                </mxCell>
                <mxCell id="7" value="缓冲区地址" style="text;html=1;align=center;verticalAlign=middle;resizable=0;points=[];autosize=1;strokeColor=none;fillColor=none;fontColor=#000000;" parent="2" vertex="1">
                    <mxGeometry x="10" y="40" width="80" height="30" as="geometry"/>
                </mxCell>
                <mxCell id="8" value="大小" style="text;html=1;align=center;verticalAlign=middle;resizable=0;points=[];autosize=1;strokeColor=none;fillColor=none;fontColor=#000000;" parent="2" vertex="1">
                    <mxGeometry x="25" y="70" width="50" height="30" as="geometry"/>
                </mxCell>
                <mxCell id="9" value="起点" style="text;html=1;align=center;verticalAlign=middle;resizable=0;points=[];autosize=1;strokeColor=none;fillColor=none;fontColor=#000000;" parent="2" vertex="1">
                    <mxGeometry x="25" y="100" width="50" height="30" as="geometry"/>
                </mxCell>
                <mxCell id="10" value="终点" style="text;html=1;align=center;verticalAlign=middle;resizable=0;points=[];autosize=1;strokeColor=none;fillColor=none;fontColor=#000000;" parent="2" vertex="1">
                    <mxGeometry x="25" y="130" width="50" height="30" as="geometry"/>
                </mxCell>
                <mxCell id="11" value="&lt;font color=&quot;#000000&quot;&gt;堆&lt;/font&gt;" style="swimlane;whiteSpace=wrap;html=1;strokeColor=#000000;fillColor=none;labelBackgroundColor=none;" parent="1" vertex="1">
                    <mxGeometry x="380" y="80" width="205" height="200" as="geometry"/>
                </mxCell>
                <mxCell id="20" value="&lt;font color=&quot;#000000&quot;&gt;D&lt;/font&gt;" style="rounded=1;whiteSpace=wrap;html=1;labelBackgroundColor=none;strokeColor=#ae4132;fillColor=#fad9d5;" parent="11" vertex="1">
                    <mxGeometry x="70" y="50" width="50" height="20" as="geometry"/>
                </mxCell>
                <mxCell id="24" value="&lt;font color=&quot;#000000&quot;&gt;E&lt;/font&gt;" style="rounded=1;whiteSpace=wrap;html=1;labelBackgroundColor=none;strokeColor=#ae4132;fillColor=#fad9d5;" parent="11" vertex="1">
                    <mxGeometry x="70" y="70" width="50" height="20" as="geometry"/>
                </mxCell>
                <mxCell id="35" style="edgeStyle=none;html=1;exitX=1;exitY=0;exitDx=0;exitDy=0;strokeColor=#000000;fontColor=#000000;" parent="11" source="25" target="31" edge="1">
                    <mxGeometry relative="1" as="geometry"/>
                </mxCell>
                <mxCell id="25" value="" style="rounded=1;whiteSpace=wrap;html=1;labelBackgroundColor=none;strokeColor=#6F0000;fillColor=#a20025;fontColor=#ffffff;" parent="11" vertex="1">
                    <mxGeometry x="70" y="90" width="50" height="20" as="geometry"/>
                </mxCell>
                <mxCell id="33" style="edgeStyle=none;html=1;exitX=1;exitY=1;exitDx=0;exitDy=0;strokeColor=#000000;fontColor=#000000;" parent="11" source="37" target="32" edge="1">
                    <mxGeometry relative="1" as="geometry"/>
                </mxCell>
                <mxCell id="26" value="" style="rounded=1;whiteSpace=wrap;html=1;labelBackgroundColor=none;strokeColor=#6F0000;fillColor=#a20025;fontColor=#ffffff;" parent="11" vertex="1">
                    <mxGeometry x="70" y="110" width="50" height="20" as="geometry"/>
                </mxCell>
                <mxCell id="27" value="&lt;font color=&quot;#000000&quot;&gt;A&lt;/font&gt;" style="rounded=1;whiteSpace=wrap;html=1;labelBackgroundColor=none;strokeColor=#ae4132;fillColor=#fad9d5;" parent="11" vertex="1">
                    <mxGeometry x="70" y="150" width="50" height="20" as="geometry"/>
                </mxCell>
                <mxCell id="28" value="&lt;font color=&quot;#000000&quot;&gt;B&lt;/font&gt;" style="rounded=1;whiteSpace=wrap;html=1;labelBackgroundColor=none;strokeColor=#ae4132;fillColor=#fad9d5;" parent="11" vertex="1">
                    <mxGeometry x="70" y="170" width="50" height="20" as="geometry"/>
                </mxCell>
                <mxCell id="31" value="stop" style="text;html=1;align=center;verticalAlign=middle;resizable=0;points=[];autosize=1;strokeColor=none;fillColor=none;fontColor=#000000;labelBackgroundColor=none;" parent="11" vertex="1">
                    <mxGeometry x="150" y="70" width="50" height="30" as="geometry"/>
                </mxCell>
                <mxCell id="32" value="start" style="text;html=1;align=center;verticalAlign=middle;resizable=0;points=[];autosize=1;strokeColor=none;fillColor=none;fontColor=#000000;labelBackgroundColor=none;" parent="11" vertex="1">
                    <mxGeometry x="155" y="130" width="50" height="30" as="geometry"/>
                </mxCell>
                <mxCell id="37" value="" style="rounded=1;whiteSpace=wrap;html=1;labelBackgroundColor=none;strokeColor=#6F0000;fillColor=#a20025;fontColor=#ffffff;" vertex="1" parent="11">
                    <mxGeometry x="70" y="130" width="50" height="20" as="geometry"/>
                </mxCell>
                <mxCell id="29" value="&lt;font style=&quot;font-size: 14px;&quot;&gt;let v = VecDeque::from(vec!['A', 'B', 'C', 'D', 'E']);&lt;/font&gt;" style="text;html=1;align=center;verticalAlign=middle;resizable=0;points=[];autosize=1;strokeColor=none;fillColor=none;fontColor=#000000;" parent="1" vertex="1">
                    <mxGeometry x="180" y="40" width="320" height="30" as="geometry"/>
                </mxCell>
                <mxCell id="30" style="edgeStyle=none;html=1;exitX=1;exitY=0.5;exitDx=0;exitDy=0;entryX=0;entryY=0.5;entryDx=0;entryDy=0;fontColor=#000000;strokeColor=#000000;" parent="1" source="3" target="20" edge="1">
                    <mxGeometry relative="1" as="geometry"/>
                </mxCell>
            </root>
        </mxGraphModel>
    </diagram>
</mxfile>